<?xml version="1.0" encoding="UTF-8" standalone="no"?>
<!-- Created with Inkscape (http://www.inkscape.org/) -->

<svg
   xmlns:dc="http://purl.org/dc/elements/1.1/"
   xmlns:cc="http://creativecommons.org/ns#"
   xmlns:rdf="http://www.w3.org/1999/02/22-rdf-syntax-ns#"
   xmlns:svg="http://www.w3.org/2000/svg"
   xmlns="http://www.w3.org/2000/svg"
   xmlns:sodipodi="http://sodipodi.sourceforge.net/DTD/sodipodi-0.dtd"
   xmlns:inkscape="http://www.inkscape.org/namespaces/inkscape"
   width="290"
   height="80"
   viewBox="0 0 290 79.999999"
   id="svg2"
   version="1.1"
   inkscape:version="0.91 r13725"
   sodipodi:docname="logo.svg">
  <defs
     id="defs4" />
  <sodipodi:namedview
     id="base"
     pagecolor="#ffffff"
     bordercolor="#666666"
     borderopacity="1.0"
     inkscape:pageopacity="0.0"
     inkscape:pageshadow="2"
     inkscape:zoom="2.8"
     inkscape:cx="97.769856"
     inkscape:cy="8.2229797"
     inkscape:document-units="px"
     inkscape:current-layer="layer1"
     showgrid="false"
     inkscape:snap-grids="false"
     units="px"
     inkscape:window-width="1366"
     inkscape:window-height="768"
     inkscape:window-x="0"
     inkscape:window-y="0"
     inkscape:window-maximized="1" />
  <metadata
     id="metadata7">
    <rdf:RDF>
      <cc:Work
         rdf:about="">
        <dc:format>image/svg+xml</dc:format>
        <dc:type
           rdf:resource="http://purl.org/dc/dcmitype/StillImage" />
        <dc:title></dc:title>
      </cc:Work>
    </rdf:RDF>
  </metadata>
  <g
     inkscape:label="Layer 1"
     inkscape:groupmode="layer"
     id="layer1"
     transform="translate(0,-972.3622)">
    <path
       style="fill:#000000"
       d="M 105.45219,1042.2586 C 105.57499,1042.2095 105.72159,1042.2155 105.77819,1042.272 105.83469,1042.3285 105.73419,1042.3687 105.55499,1042.3613 105.35679,1042.3532 105.31649,1042.3129 105.45219,1042.2586 Z M 108.17319,1042.2586 C 108.29589,1042.2095 108.44259,1042.2155 108.49909,1042.272 108.55559,1042.3285 108.45519,1042.3687 108.27589,1042.3613 108.07779,1042.3532 108.03749,1042.3129 108.17319,1042.2586 Z M 110.38389,1042.2586 C 110.50669,1042.2095 110.65339,1042.2155 110.70989,1042.272 110.76639,1042.3285 110.66589,1042.3687 110.48669,1042.3613 110.28859,1042.3532 110.24829,1042.3129 110.38389,1042.2586 Z M 113.32029,1042.1055 C 113.32839,1041.9074 113.36869,1041.8671 113.42299,1042.0027 113.47209,1042.1255 113.46609,1042.2722 113.40959,1042.3287 113.35309,1042.3852 113.31289,1042.2848 113.32029,1042.1055 Z M 113.30989,1040.8311 C 112.89069,1040.641 112.43149,1040.3823 112.28949,1040.2562 111.41699,1039.4817 104.59059,1036.0826 103.90759,1036.0826 103.76839,1036.0826 103.11689,1036.7522 102.45979,1037.5706 101.80269,1038.389 100.97079,1039.3409 100.61109,1039.6859 99.871694,1040.3951 98.667994,1040.8694 97.865094,1040.7678 96.927194,1040.6491 95.377894,1040.1445 95.050294,1039.8511 94.776294,1039.6056 94.232594,1039.5688 90.883894,1039.5688 87.122594,1039.5688 82.550194,1039.731 80.634994,1039.9324 80.046294,1039.9943 79.637094,1039.9648 79.569594,1039.8555 79.509294,1039.758 79.958494,1039.3092 80.567894,1038.8582 81.177194,1038.4072 81.675794,1037.9891 81.675794,1037.9291 81.675794,1037.8691 81.478294,1037.7704 81.236894,1037.7099 80.995494,1037.6493 80.517194,1037.4207 80.173994,1037.2018 79.830794,1036.983 79.150994,1036.6657 78.663394,1036.4969 78.175694,1036.328 77.735894,1036.0836 77.686094,1035.9538 77.576394,1035.668 77.863594,1035.0702 78.277794,1034.7221 79.015294,1034.1023 81.675794,1030.7554 81.675794,1030.4475 81.675794,1029.8532 82.696094,1028.5831 85.072694,1026.2191 L 87.380794,1023.9233 87.676194,1021.7976 C 87.943394,1019.8749 87.947094,1019.5921 87.714694,1018.837 87.336494,1017.6081 87.381894,1016.9932 87.882894,1016.5575 88.116794,1016.3542 88.308094,1016.0956 88.308094,1015.9828 88.308094,1015.7487 89.634994,1014.4657 90.721394,1013.6494 91.124394,1013.3466 93.167194,1011.8753 95.260794,1010.3798 97.354394,1008.8843 99.573694,1007.2516 100.19249,1006.7514 103.89149,1003.7619 105.59939,1002.3998 106.59469,1001.6455 107.21179,1001.1778 107.96829,1000.6039 108.27579,1000.37 108.58329,1000.1362 110.00709,998.98831 111.43979,997.81921 112.87249,996.65001 114.46739,995.35541 114.98409,994.94241 115.50079,994.52931 116.50179,993.64111 117.20859,992.96861 119.09449,991.17421 120.26069,990.12749 122.89909,987.86121 127.17269,984.19033 127.59619,983.86892 128.02009,983.97531 128.29389,984.04402 128.66599,983.88944 129.30049,983.44345 131.73859,981.72975 132.41259,981.93637 134.07649,984.90762 134.99479,986.54741 136.53629,988.49846 137.68459,989.47425 138.46509,990.13758 140.74059,992.51201 141.03699,992.97251 141.96729,994.41771 140.78549,996.37821 138.57999,997.04851 138.27459,997.14131 138.27339,997.16161 138.55499,997.47271 138.71759,997.65251 138.82369,997.87451 138.79069,997.96611 138.75769,998.05771 137.77409,999.14781 136.60499,1000.3885 134.46309,1002.6615 131.01109,1005.8035 129.61929,1006.7468 128.55039,1007.4713 126.91559,1008.7396 125.01729,1010.3169 124.11579,1011.0661 122.73829,1012.1897 121.95629,1012.8139 121.17419,1013.4381 119.94879,1014.433 119.23299,1015.0247 116.26439,1017.479 114.35059,1019.0235 113.33379,1019.7856 112.74069,1020.2302 111.75129,1021.0369 111.13519,1021.5784 110.51899,1022.1198 109.24409,1023.2309 108.30219,1024.0475 107.36019,1024.8641 106.22459,1025.8589 105.77869,1026.2583 105.33269,1026.6576 104.59159,1027.2905 104.13179,1027.6646 103.67209,1028.0387 102.85079,1028.7129 102.30669,1029.1628 101.76269,1029.6126 101.04979,1030.13 100.72239,1030.3124 100.39509,1030.4949 100.00549,1030.731 99.856694,1030.8371 99.648494,1030.9854 99.157894,1030.9284 97.730894,1030.59 96.028894,1030.1863 95.798494,1030.1682 94.940394,1030.3704 94.425994,1030.4917 93.605894,1030.7934 93.117894,1031.0409 92.629994,1031.2884 92.147894,1031.4909 92.046594,1031.4909 91.945294,1031.4909 91.372694,1031.7014 90.774094,1031.9586 89.994694,1032.2935 89.658094,1032.536 89.587994,1032.8127 89.531494,1033.0356 88.909794,1033.6294 88.119094,1034.2157 87.011694,1035.0368 86.624494,1035.2323 86.104994,1035.2323 85.591494,1035.2323 85.234594,1035.4077 84.334094,1036.1029 83.713794,1036.5818 83.206294,1037.0409 83.206294,1037.1233 83.206294,1037.2056 84.181994,1037.2745 85.374594,1037.2765 90.203094,1037.2843 93.614994,1037.6784 94.940394,1038.3816 96.339794,1039.124 96.968994,1039.3137 98.032194,1039.3137 99.423994,1039.3137 99.740994,1039.0864 100.82779,1037.3099 101.78109,1035.7516 102.48619,1034.9558 103.03579,1034.8179 103.67209,1034.6582 105.10139,1035.2586 107.44049,1036.6683 111.52359,1039.1289 112.35299,1039.5217 113.66299,1039.6155 114.52969,1039.6775 115.04029,1039.6225 115.60679,1039.4062 116.75469,1038.9678 116.96119,1038.4621 116.90779,1036.2203 116.86519,1034.4268 116.87119,1034.395 117.35909,1033.849 118.51779,1032.5522 121.22039,1033.1145 128.86729,1036.2433 131.83929,1037.4594 133.88399,1038.4364 133.88399,1038.6405 133.88399,1038.7217 133.59709,1038.8389 133.24629,1038.901 132.89559,1038.9631 132.19689,1039.118 131.69369,1039.2453 130.80939,1039.4689 130.74099,1039.4601 129.65299,1038.9836 127.00049,1037.8218 121.18559,1035.7841 120.11919,1035.6427 119.11759,1035.5098 118.99549,1035.6584 118.86069,1037.1754 118.79879,1037.8711 118.59779,1038.6717 118.36969,1039.1311 118.03949,1039.796 117.80279,1040.0014 116.73869,1040.5466 115.29209,1041.2878 114.46739,1041.3562 113.30989,1040.8311 Z M 81.951994,1035.955 C 82.303594,1035.5107 82.933094,1034.7878 83.350994,1034.3486 L 84.110894,1033.5499 83.649894,1032.9456 C 83.396394,1032.6132 83.146194,1032.3412 83.093894,1032.3412 83.041694,1032.3412 82.578694,1032.7253 82.065094,1033.1947 81.551594,1033.664 80.730094,1034.2379 80.239694,1034.4699 79.749294,1034.7019 79.216894,1035.0366 79.056694,1035.2136 78.779094,1035.5203 78.787994,1035.5515 79.245594,1035.8774 79.767794,1036.2492 80.790294,1036.7268 81.111694,1036.7489 81.222294,1036.7565 81.600494,1036.3993 81.951994,1035.955 Z M 86.206794,1033.5305 C 86.413894,1033.2038 86.780094,1032.6964 87.020594,1032.4029 87.260994,1032.1095 87.457794,1031.7995 87.457794,1031.7141 87.457794,1031.5022 85.153094,1029.6203 84.893594,1029.6203 84.779294,1029.6203 84.272194,1029.8297 83.766694,1030.0857 83.146894,1030.3995 82.869794,1030.636 82.915694,1030.8117 83.054094,1031.3408 85.335994,1034.2168 85.581094,1034.1711 85.718194,1034.1455 85.999694,1033.8572 86.206794,1033.5305 Z M 90.013494,1031.1074 C 91.300194,1030.2887 92.036794,1029.6954 92.042894,1029.4725 92.046494,1029.3444 91.791094,1028.8087 91.475294,1028.2821 91.159594,1027.7554 90.853194,1027.0566 90.794394,1026.7293 90.662994,1025.9972 89.246194,1024.2069 88.687294,1024.0666 88.135294,1023.9281 88.018894,1024.0866 87.466694,1025.7282 87.202794,1026.5126 86.888594,1027.3663 86.768394,1027.6253 86.570194,1028.0526 86.590394,1028.1391 86.987194,1028.5606 87.227694,1028.8161 87.551494,1029.4077 87.706794,1029.8754 88.273494,1031.5817 88.814094,1031.8705 90.013494,1031.1074 Z M 97.347794,1029.4502 C 97.709094,1029.4502 97.976394,1028.9675 97.710394,1028.7953 97.616594,1028.7346 97.131294,1028.1875 96.631994,1027.5796 94.627894,1025.1395 89.154894,1019.1824 88.844894,1019.1036 88.502894,1019.0167 88.669294,1020.7273 89.170694,1022.4526 L 89.583494,1023.8729 91.498594,1025.664 C 92.551894,1026.6491 93.584194,1027.7585 93.792594,1028.1292 94.328294,1029.0824 95.490694,1029.6724 96.534694,1029.5211 96.803594,1029.4821 97.169494,1029.4502 97.347794,1029.4502 Z M 101.12419,1028.5879 C 101.62809,1028.1915 101.58319,1028.0092 100.70809,1026.8993 100.44999,1026.572 100.04249,1025.815 99.802494,1025.2173 99.562594,1024.6195 99.046794,1023.7163 98.656294,1023.2102 97.934794,1022.275 94.672094,1019.0766 94.439594,1019.0766 94.369594,1019.0766 93.789194,1018.4261 93.149794,1017.6311 92.510394,1016.8361 91.955694,1016.1856 91.916994,1016.1856 91.663794,1016.1856 90.859694,1016.9405 90.863194,1017.175 90.866994,1017.4292 94.991994,1022.7956 97.614494,1025.958 98.902994,1027.5119 100.28669,1028.9401 100.50359,1028.9401 100.59869,1028.9401 100.87799,1028.7816 101.12419,1028.5879 Z M 104.04439,1026.585 C 104.26419,1026.4122 105.27309,1025.4955 106.28649,1024.548 107.29979,1023.6005 108.36079,1022.6514 108.64409,1022.439 108.92739,1022.2265 109.80539,1021.5128 110.59529,1020.8531 111.38509,1020.1933 112.75839,1019.0564 113.64689,1018.3266 116.23109,1016.204 117.88949,1014.8028 118.90649,1013.8828 119.42769,1013.4112 120.42809,1012.5711 121.12959,1012.0158 121.83109,1011.4604 124.08859,1009.3101 126.14629,1007.2372 128.20399,1005.1643 130.84419,1002.6031 132.01339,1001.5457 133.18249,1000.4882 134.19019,999.54131 134.25269,999.44131 134.31519,999.34141 134.99259,998.72501 135.75789,998.07171 137.33959,996.72161 137.24009,997.14641 136.69029,994.09211 136.47349,992.88771 136.32399,992.52001 135.74739,991.77267 135.00489,990.81024 133.59379,989.4638 132.67449,988.84058 131.37479,987.95943 128.60789,986.42536 128.32279,986.42779 128.15459,986.42922 127.32819,986.98718 126.48639,987.6677 124.29189,989.44183 122.23189,991.00832 120.97259,991.86067 119.69199,992.72741 117.33889,994.47791 113.57849,997.36121 112.09119,998.50161 110.63309,999.58781 110.33829,999.77481 110.04349,999.96191 109.48289,1000.4127 109.09239,1000.7767 108.70179,1001.1406 108.20849,1001.5576 107.99609,1001.7034 107.57589,1001.9918 105.10259,1004.1562 101.71899,1007.1966 100.53669,1008.2589 98.546994,1010.0467 97.297394,1011.1695 96.047794,1012.2922 94.661894,1013.5068 94.217694,1013.8684 93.346494,1014.5775 93.159894,1015.1896 93.722994,1015.4909 93.895194,1015.5831 94.441894,1016.2936 94.937894,1017.0699 97.338994,1020.828 97.805194,1021.3789 101.67979,1025.0355 102.22889,1025.5537 102.81559,1026.185 102.98369,1026.4385 103.34449,1026.9827 103.50979,1027.0055 104.04439,1026.585 Z M 106.63079,1018.6068 C 106.22449,1018.3549 106.11179,1018.3473 105.78729,1018.55 105.44149,1018.766 105.37069,1018.7353 104.86579,1018.1513 104.54479,1017.7799 104.27129,1017.2366 104.20359,1016.8358 104.10709,1016.265 103.82599,1015.8925 102.49029,1014.5655 101.61149,1013.6924 100.89249,1012.9263 100.89249,1012.8631 100.89249,1012.8 101.07669,1012.6034 101.30179,1012.4264 101.55929,1012.2238 101.68049,1011.9879 101.62879,1011.7901 101.57149,1011.5709 101.78979,1011.2618 102.35009,1010.7686 103.73659,1009.5481 106.37709,1007.6004 107.43979,1007.0144 108.65849,1006.3423 111.37589,1004.4325 113.11689,1003.0246 114.46189,1001.9369 115.98209,1000.4003 117.34139,998.75451 117.80479,998.19331 118.74399,997.27501 119.42839,996.71381 120.11289,996.15261 121.04599,995.36821 121.50209,994.97071 121.95819,994.57311 122.47629,994.24791 122.65339,994.24791 123.08329,994.24791 123.59749,994.93071 123.93669,995.95201 124.23639,996.85421 125.08829,997.68351 126.61779,998.56211 127.33909,998.97651 128.27209,1000.0828 128.27209,1000.5237 128.27209,1000.937 123.34879,1005.031 121.27079,1006.3456 119.96529,1007.1715 115.76039,1010.6923 114.15709,1012.3019 113.64269,1012.8184 112.65919,1013.8673 111.97149,1014.6329 110.96279,1015.756 107.39559,1018.9202 107.15859,1018.902 107.12619,1018.8995 106.88869,1018.7667 106.63079,1018.6068 Z M 107.80589,1015.677 C 108.43709,1015.1168 109.90159,1013.988 111.06039,1013.1687 114.48039,1010.7506 118.37209,1007.5535 120.19419,1005.665 121.12959,1004.6956 122.72009,1003.085 123.72869,1002.0859 L 125.56249,1000.2694 124.91909,999.00181 C 124.30289,997.78781 123.16939,996.62871 122.59829,996.62871 122.48529,996.62871 121.47729,997.36121 120.35819,998.25641 119.23919,999.15161 117.97919,1000.0901 117.55829,1000.342 116.47339,1000.9912 115.27559,1001.8505 114.08169,1002.8359 113.51519,1003.3036 112.47769,1004.1449 111.77619,1004.7055 109.99029,1006.1329 103.36989,1012.6 103.30389,1012.9816 103.22249,1013.4521 103.97289,1014.8469 104.68439,1015.5477 105.11739,1015.9741 106.24879,1016.67 106.53879,1016.6883 106.60449,1016.6924 107.17469,1016.2373 107.80589,1015.677 Z M 139.09449,994.33261 C 139.14839,994.19211 139.14629,993.89261 139.08969,993.66721 138.99609,993.29441 136.92699,990.0842 136.40029,989.49455 136.27899,989.35881 136.10329,989.07572 136.00979,988.86545 135.61799,987.98477 132.60749,984.82812 131.96469,984.62413 131.62419,984.51603 130.82299,984.84298 130.82299,985.09006 130.82299,985.16592 131.29459,985.74607 131.87099,986.37928 132.44739,987.01249 133.25859,987.98944 133.67369,988.55027 134.08869,989.1111 134.64219,989.79984 134.90369,990.0808 136.20399,991.47803 137.28199,992.72771 137.94879,993.61091 138.71659,994.62781 138.92969,994.76211 139.09449,994.33261 Z"
       id="path4147"
       inkscape:connector-curvature="0" />
    <g
       style="font-style:normal;font-variant:normal;font-weight:normal;font-stretch:normal;font-size:42.50009918px;line-height:125%;font-family:Carlito;-inkscape-font-specification:'Carlito, Normal';text-align:start;letter-spacing:0px;word-spacing:0px;writing-mode:lr-tb;text-anchor:start;fill:#000000;fill-opacity:1;stroke:none;stroke-width:1px;stroke-linecap:butt;stroke-linejoin:miter;stroke-opacity:1"
       id="text4151"
       transform="translate(9.9999938,-7.4999862)">
      <path
         d="M 11.241038,1018.2807 4.9510233,1018.2807 Q 4.7385228,1017.4307 4.6535226,1016.7082 4.6110225,1015.9432 4.6110225,1015.2632 4.6110225,1014.5832 4.6535226,1013.8607 4.7385228,1013.1382 4.9510233,1012.2882 L 24.713569,1012.2882 Q 24.92607,1013.1382 24.96857,1013.8607 25.05357,1014.5832 25.05357,1015.2632 25.05357,1015.9432 24.96857,1016.7082 24.92607,1017.4307 24.713569,1018.2807 L 18.423555,1018.2807 18.423555,1034.2182 Q 17.318552,1034.3882 16.42605,1034.4732 15.533548,1034.5582 14.811046,1034.5582 14.088545,1034.5582 13.196043,1034.4732 12.30354,1034.3882 11.241038,1034.2182 L 11.241038,1018.2807 Z"
         style="font-style:normal;font-variant:normal;font-weight:normal;font-stretch:normal;font-family:'Aller Display';-inkscape-font-specification:'Aller Display'"
         id="path4185"
         inkscape:connector-curvature="0" />
      <path
         d="M 41.574156,1026.1432 35.284142,1026.1432 35.284142,1034.2182 Q 34.179139,1034.3882 33.286637,1034.4732 32.394135,1034.5582 31.671633,1034.5582 30.949132,1034.5582 30.056629,1034.4732 29.164127,1034.3882 28.101625,1034.2182 L 28.101625,1012.2882 Q 29.036627,1012.0757 29.929129,1011.9907 30.864131,1011.9057 31.714133,1011.9057 32.521635,1011.9057 33.456637,1011.9907 34.39164,1012.0757 35.284142,1012.2882 L 35.284142,1019.7682 41.574156,1019.7682 41.574156,1012.2882 Q 42.509159,1012.0757 43.401661,1011.9907 44.336663,1011.9057 45.186665,1011.9057 45.994167,1011.9057 46.929169,1011.9907 47.864171,1012.0757 48.756673,1012.2882 L 48.756673,1034.2182 Q 47.651671,1034.3882 46.759168,1034.4732 45.866666,1034.5582 45.144165,1034.5582 44.421663,1034.5582 43.529161,1034.4732 42.636659,1034.3882 41.574156,1034.2182 L 41.574156,1026.1432 Z"
         style="font-style:normal;font-variant:normal;font-weight:normal;font-stretch:normal;font-family:'Aller Display';-inkscape-font-specification:'Aller Display'"
         id="path4187"
         inkscape:connector-curvature="0" />
      <path
         d="M 59.747597,1025.5482 Q 60.215098,1027.2907 61.362601,1028.0132 62.552603,1028.7357 64.465108,1028.7357 65.697611,1028.7357 67.227614,1028.4382 68.757618,1028.1407 70.245121,1027.5457 70.840123,1028.6507 71.265124,1030.1807 71.732625,1031.7107 71.775125,1033.3682 67.992616,1034.7707 64.040107,1034.7707 60.9801,1034.7707 58.770095,1033.9207 56.60259,1033.0707 55.200086,1031.5832 53.840083,1030.0532 53.160081,1027.9707 52.52258,1025.8882 52.52258,1023.4232 52.52258,1021.0007 53.202582,1018.8757 53.882583,1016.7507 55.242586,1015.1782 56.60259,1013.6057 58.642594,1012.7132 60.682599,1011.7782 63.402605,1011.7782 65.655111,1011.7782 67.397615,1012.5432 69.182619,1013.3082 70.415122,1014.6682 71.647625,1015.9857 72.285126,1017.8982 72.965128,1019.7682 72.965128,1021.9782 72.965128,1023.1257 72.837627,1024.0607 72.752627,1024.9532 72.667627,1025.5482 L 59.747597,1025.5482 Z M 63.147605,1017.1757 Q 61.787602,1017.1757 60.810099,1018.0257 59.832597,1018.8757 59.662597,1020.6607 L 66.462613,1020.6607 Q 66.377612,1019.1732 65.52761,1018.1957 64.720108,1017.1757 63.147605,1017.1757 Z"
         style="font-style:normal;font-variant:normal;font-weight:normal;font-stretch:normal;font-family:'Aller Display';-inkscape-font-specification:'Aller Display'"
         id="path4189"
         inkscape:connector-curvature="0" />
    </g>
    <g
       style="font-style:normal;font-variant:normal;font-weight:normal;font-stretch:normal;font-size:42.50009918px;line-height:125%;font-family:Carlito;-inkscape-font-specification:'Carlito, Normal';text-align:start;letter-spacing:0px;word-spacing:0px;writing-mode:lr-tb;text-anchor:start;fill:#000000;fill-opacity:1;stroke:none;stroke-width:1px;stroke-linecap:butt;stroke-linejoin:miter;stroke-opacity:1"
       id="text4155"
       transform="translate(9.9999938,-7.4999862)">
      <path
         d="M 120.45436,1005.9969 Q 121.34686,1005.8694 122.36686,1005.7844 123.42936,1005.6569 124.32187,1005.6569 125.17187,1005.6569 126.14937,1005.7844 127.16937,1005.8694 128.01937,1005.9969 L 134.05439,1021.8069 140.3019,1005.9969 Q 141.1519,1005.8694 142.00191,1005.7844 142.89441,1005.6569 143.74441,1005.6569 144.63691,1005.6569 145.57192,1005.7844 146.50692,1005.8694 147.39942,1005.9969 L 148.84442,1036.342 Q 148.16442,1036.4695 147.31442,1036.597 146.50692,1036.7245 145.14691,1036.7245 143.65941,1036.7245 141.61941,1036.342 L 141.0244,1018.7469 136.34939,1030.3495 Q 135.58439,1030.477 134.81939,1030.562 134.05439,1030.647 133.41689,1030.647 132.77939,1030.647 132.09938,1030.6045 131.41938,1030.5195 130.69688,1030.3495 L 126.53187,1018.9169 126.06437,1036.342 Q 124.27937,1036.7245 122.66436,1036.7245 121.17686,1036.7245 119.22185,1036.342 L 120.45436,1005.9969 Z"
         style="font-style:normal;font-variant:normal;font-weight:normal;font-stretch:normal;font-family:'Aller Display';-inkscape-font-specification:'Aller Display'"
         id="path4172"
         inkscape:connector-curvature="0" />
      <path
         d="M 152.32013,1029.287 Q 152.32013,1027.2045 153.21264,1025.8445 154.10514,1024.4845 155.50764,1023.677 156.91015,1022.8695 158.61015,1022.5719 160.31015,1022.2319 161.92516,1022.2319 L 164.51766,1022.2319 Q 164.47516,1021.4669 164.09266,1020.9569 163.71016,1020.4469 163.11516,1020.1919 162.52016,1019.8944 161.79766,1019.8094 161.07516,1019.6819 160.31015,1019.6819 159.29015,1019.6819 157.93015,1019.9369 156.57014,1020.1494 155.12514,1020.6594 154.74264,1019.9369 154.44514,1019.3419 154.19014,1018.7469 154.02014,1018.1519 153.89264,1017.5144 153.80764,1016.8769 153.76514,1016.1969 153.76514,1015.3469 155.80514,1014.6669 157.80265,1014.3269 159.84265,1013.9869 161.45766,1013.9869 163.66766,1013.9869 165.45267,1014.5394 167.23767,1015.0494 168.47017,1016.1544 169.74518,1017.2594 170.42518,1019.0019 171.10518,1020.7019 171.10518,1023.082 L 171.10518,1035.5345 Q 169.49017,1036.002 167.19517,1036.4695 164.90016,1036.937 162.35016,1036.937 160.14015,1036.937 158.27015,1036.512 156.44264,1036.1295 155.12514,1035.237 153.80764,1034.3445 153.04264,1032.8995 152.32013,1031.412 152.32013,1029.287 Z M 162.35016,1031.667 Q 162.73266,1031.667 163.45516,1031.582 164.17766,1031.497 164.51766,1031.412 L 164.51766,1026.737 162.09516,1026.737 Q 160.60765,1026.737 159.58765,1027.3745 158.56765,1028.012 158.56765,1029.1595 158.56765,1030.0095 158.95015,1030.5195 159.33265,1030.987 159.88515,1031.242 160.48015,1031.497 161.11766,1031.582 161.79766,1031.667 162.35016,1031.667 Z"
         style="font-style:normal;font-variant:normal;font-weight:normal;font-stretch:normal;font-family:'Aller Display';-inkscape-font-specification:'Aller Display'"
         id="path4174"
         inkscape:connector-curvature="0" />
      <path
         d="M 175.58827,1014.5819 Q 177.58578,1014.3269 179.71078,1014.1569 181.87829,1013.9869 183.79079,1013.9869 188.9333,1013.9869 191.48331,1015.9419 194.07582,1017.8544 194.07582,1021.3394 194.07582,1022.657 193.77832,1023.6345 193.48081,1024.612 193.05581,1025.3345 192.63081,1026.0145 192.16331,1026.4395 191.69581,1026.8645 191.39831,1027.1195 L 196.24332,1036.3845 Q 195.39332,1036.5545 194.33082,1036.6395 193.31081,1036.7245 192.33331,1036.7245 191.14331,1036.7245 190.03831,1036.6395 188.9333,1036.5545 188.2108,1036.3845 L 183.49329,1026.3545 184.08829,1026.0145 Q 185.5758,1025.1645 186.1283,1024.2295 186.6808,1023.252 186.6808,1022.1469 186.6808,1021.0419 186.0008,1020.3619 185.3633,1019.6394 183.91829,1019.6394 183.11079,1019.6394 182.68579,1019.7244 L 182.68579,1036.427 Q 181.58079,1036.6395 180.68828,1036.682 179.79578,1036.767 179.11578,1036.767 178.39328,1036.767 177.54328,1036.682 176.69328,1036.6395 175.58827,1036.427 L 175.58827,1014.5819 Z"
         style="font-style:normal;font-variant:normal;font-weight:normal;font-stretch:normal;font-family:'Aller Display';-inkscape-font-specification:'Aller Display'"
         id="path4176"
         inkscape:connector-curvature="0" />
      <path
         d="M 198.99653,1014.4969 Q 199.93153,1014.2844 200.82403,1014.1994 201.75904,1014.1144 202.60904,1014.1144 203.41654,1014.1144 204.35154,1014.1994 205.28654,1014.2844 206.17905,1014.4969 L 206.17905,1036.3845 Q 205.07404,1036.597 204.18154,1036.6395 203.28904,1036.7245 202.60904,1036.7245 201.88654,1036.7245 200.99403,1036.6395 200.10153,1036.597 198.99653,1036.3845 L 198.99653,1014.4969 Z M 211.87406,1014.4969 Q 212.63906,1014.3269 213.74406,1014.2419 214.84907,1014.1569 215.69907,1014.1569 216.80407,1014.1569 217.90907,1014.2419 219.05658,1014.3269 219.73658,1014.4969 L 214.46657,1024.697 220.33158,1036.3845 Q 219.56658,1036.5545 218.41907,1036.6395 217.27157,1036.7245 216.42157,1036.7245 215.31657,1036.7245 214.21156,1036.6395 213.14906,1036.5545 212.51156,1036.3845 L 206.85905,1024.9945 211.87406,1014.4969 Z"
         style="font-style:normal;font-variant:normal;font-weight:normal;font-stretch:normal;font-family:'Aller Display';-inkscape-font-specification:'Aller Display'"
         id="path4178"
         inkscape:connector-curvature="0" />
      <path
         d="M 228.06926,1027.757 Q 228.53676,1029.4995 229.68426,1030.222 230.87427,1030.9445 232.78677,1030.9445 234.01927,1030.9445 235.54928,1030.647 237.07928,1030.3495 238.56679,1029.7545 239.16179,1030.8595 239.58679,1032.3895 240.05429,1033.9195 240.09679,1035.577 236.31428,1036.9795 232.36177,1036.9795 229.30176,1036.9795 227.09176,1036.1295 224.92425,1035.2795 223.52175,1033.792 222.16175,1032.262 221.48175,1030.1795 220.84424,1028.097 220.84424,1025.632 220.84424,1023.2095 221.52425,1021.0844 222.20425,1018.9594 223.56425,1017.3869 224.92425,1015.8144 226.96426,1014.9219 229.00426,1013.9869 231.72427,1013.9869 233.97677,1013.9869 235.71928,1014.7519 237.50428,1015.5169 238.73679,1016.8769 239.96929,1018.1944 240.60679,1020.1069 241.28679,1021.9769 241.28679,1024.187 241.28679,1025.3345 241.15929,1026.2695 241.07429,1027.162 240.98929,1027.757 L 228.06926,1027.757 Z M 231.46927,1019.3844 Q 230.10927,1019.3844 229.13176,1020.2344 228.15426,1021.0844 227.98426,1022.8695 L 234.78428,1022.8695 Q 234.69928,1021.3819 233.84927,1020.4044 233.04177,1019.3844 231.46927,1019.3844 Z"
         style="font-style:normal;font-variant:normal;font-weight:normal;font-stretch:normal;font-family:'Aller Display';-inkscape-font-specification:'Aller Display'"
         id="path4180"
         inkscape:connector-curvature="0" />
      <path
         d="M 244.73394,1014.5819 Q 246.73145,1014.3269 248.85645,1014.1569 251.02396,1013.9869 252.93646,1013.9869 258.07897,1013.9869 260.62898,1015.9419 263.22148,1017.8544 263.22148,1021.3394 263.22148,1022.657 262.92398,1023.6345 262.62648,1024.612 262.20148,1025.3345 261.77648,1026.0145 261.30898,1026.4395 260.84148,1026.8645 260.54398,1027.1195 L 265.38899,1036.3845 Q 264.53899,1036.5545 263.47648,1036.6395 262.45648,1036.7245 261.47898,1036.7245 260.28898,1036.7245 259.18397,1036.6395 258.07897,1036.5545 257.35647,1036.3845 L 252.63896,1026.3545 253.23396,1026.0145 Q 254.72146,1025.1645 255.27397,1024.2295 255.82647,1023.252 255.82647,1022.1469 255.82647,1021.0419 255.14647,1020.3619 254.50896,1019.6394 253.06396,1019.6394 252.25646,1019.6394 251.83146,1019.7244 L 251.83146,1036.427 Q 250.72645,1036.6395 249.83395,1036.682 248.94145,1036.767 248.26145,1036.767 247.53895,1036.767 246.68895,1036.682 245.83894,1036.6395 244.73394,1036.427 L 244.73394,1014.5819 Z"
         style="font-style:normal;font-variant:normal;font-weight:normal;font-stretch:normal;font-family:'Aller Display';-inkscape-font-specification:'Aller Display'"
         id="path4182"
         inkscape:connector-curvature="0" />
    </g>
  </g>
</svg>
